<svg width="347.314" height="55.847" viewBox="0 0 347.314 55.847" xmlns="http://www.w3.org/2000/svg"><g id="svgGroup" stroke-linecap="round" fill-rule="nonzero" font-size="9pt" stroke="#f0f0f0" stroke-width="0.5" fill="#00C8C8" style="stroke:#f0f0f0;stroke-width:0.5;fill:#00C8C8"><path d="M 224.451 55.298 L 212.329 55.298 L 212.329 6.628 C 212.329 3.296 215.076 0.549 218.408 0.549 L 224.451 0.549 C 228.149 0.549 231.262 2.856 233.02 6.775 L 245.471 35.815 L 245.471 0.549 L 257.593 0.549 L 257.593 49.219 C 257.593 52.551 254.883 55.298 251.514 55.298 L 245.947 55.298 C 242.395 55.298 240.527 52.991 239.136 49.988 L 224.451 16.663 L 224.451 55.298 Z M 75.22 35.486 L 70.825 35.486 C 68.848 35.486 67.932 36.511 67.932 38.489 L 67.932 55.298 L 55.811 55.298 L 55.811 30.615 C 55.811 27.283 58.521 24.536 61.89 24.536 L 79.907 24.536 C 83.496 24.536 86.426 21.606 86.426 18.018 C 86.426 14.429 83.496 11.499 79.907 11.499 L 70.203 11.499 L 73.535 18.64 L 60.901 18.64 L 55.408 6.885 A 6.366 6.366 0 0 1 54.749 4.211 C 54.749 2.051 56.25 0.549 58.777 0.549 L 81.519 0.549 C 91.113 0.549 98.95 8.423 98.95 18.018 A 17.57 17.57 0 0 1 87.744 34.351 L 100.122 55.298 L 86.902 55.298 L 75.22 35.486 Z M 298.206 55.298 L 315.967 27.1 C 305.2 9.375 310.583 18.237 299.817 0.549 L 313.037 0.549 A 21869.057 21869.057 0 0 0 313.688 1.61 C 319.266 10.705 316.489 6.16 322.705 16.333 L 332.886 0.549 L 346.106 0.549 L 329.663 27.1 L 347.314 55.298 L 333.728 55.298 L 322.705 37.463 L 311.426 55.298 L 298.206 55.298 Z M 32.996 0 A 25.985 25.985 0 0 1 49.146 5.64 L 42.261 15.308 C 39.917 12.891 35.632 11.169 31.75 11.169 L 29.224 11.169 A 16.809 16.809 0 0 0 12.488 27.942 A 16.77 16.77 0 0 0 29.187 44.678 L 31.458 44.678 A 14.008 14.008 0 0 0 35.609 43.975 A 24.753 24.753 0 0 0 44.531 38.745 L 51.196 48.34 C 46.436 52.991 40.027 55.847 32.996 55.847 L 27.869 55.847 C 12.524 55.847 0 43.286 0 27.942 C 0 12.561 12.524 0 27.869 0 L 32.996 0 Z M 133.154 0.549 L 146.375 0.549 L 129.529 32.52 L 129.529 55.298 L 117.371 55.298 L 117.371 32.52 L 100.525 0.549 L 113.745 0.549 C 119.619 12.431 117.493 8.161 121.867 17.014 A 14032.472 14032.472 0 0 0 123.45 20.215 L 133.154 0.549 Z M 294.324 0.549 L 294.324 11.499 L 286.56 11.499 L 286.56 44.348 L 294.324 44.348 L 294.324 55.298 L 266.675 55.298 L 266.675 44.348 L 274.438 44.348 L 274.438 11.499 L 266.675 11.499 L 266.675 0.549 L 294.324 0.549 Z M 173.145 55.847 C 157.8 55.847 145.276 43.286 145.276 27.942 C 145.276 12.561 157.8 0 173.145 0 L 176.807 0 C 192.114 0 204.675 12.561 204.675 27.942 C 204.675 43.286 192.114 55.847 176.807 55.847 L 173.145 55.847 Z M 174.5 11.169 A 16.809 16.809 0 0 0 157.764 27.942 C 157.764 37.134 165.308 44.678 174.5 44.678 L 175.452 44.678 A 16.77 16.77 0 0 0 192.151 27.942 C 192.151 18.713 184.644 11.169 175.452 11.169 L 174.5 11.169 Z"/></g></svg>